<svg width="114" height="114" viewBox="0 0 114 114" fill="none" xmlns="http://www.w3.org/2000/svg">
<circle cx="56.9998" cy="56.9998" r="56.4998" fill="white" stroke="#DDDDDD"/>
<mask id="mask0_2335_24520" style="mask-type:alpha" maskUnits="userSpaceOnUse" x="1" y="2" width="112" height="112">
<circle cx="57.4244" cy="58.4254" r="55.0748" fill="white" stroke="#DDDDDD"/>
</mask>
<g mask="url(#mask0_2335_24520)">
<path d="M91.9983 65.364C91.9985 91.0445 99.795 145.25 110.379 150.326L52.3388 149.843H2.37891C13.4341 144.934 23.8556 91.0704 23.8559 65.364V58.3262H91.8426L91.9983 65.364Z" fill="#E2E2E2"/>
<path d="M91.7501 56.3262L91.9329 64.6625V64.6903L91.9564 67.174C92.1791 79.9857 94.0532 98.5685 97.0772 114.893C98.6901 123.6 100.621 131.618 102.785 137.754C103.868 140.825 104.997 143.384 106.149 145.309C107.323 147.272 108.425 148.411 109.379 148.875L108.768 151.326L51.3536 150.841H1.94294L1.37891 148.372C2.39844 147.912 3.58528 146.78 4.87019 144.844C6.13338 142.941 7.3981 140.407 8.63305 137.365C11.1013 131.285 13.3951 123.324 15.3597 114.673C19.0444 98.4458 21.5269 79.9556 21.8226 67.1689L21.8514 64.6903V56.3262H91.7501ZM24.494 67.2145C24.1942 80.2207 21.6842 98.8881 17.9736 115.229C15.994 123.947 13.6618 132.053 11.1216 138.311C9.8524 141.437 8.51467 144.143 7.12111 146.242C6.63692 146.972 6.13086 147.647 5.60657 148.251H51.3745L105.277 148.706C104.771 148.076 104.291 147.369 103.835 146.607C102.562 144.478 101.367 141.745 100.255 138.592C98.0287 132.279 96.0689 124.117 94.445 115.351C91.1993 97.8291 89.2618 77.7071 89.259 64.7181L89.1336 58.9161H24.5253V64.6903L24.494 67.2145Z" fill="#BBBBBB"/>
<path d="M21.7422 59.9486C21.7422 40.4575 37.5429 24.6567 57.0341 24.6567V24.6567C76.5252 24.6567 92.3259 40.4574 92.3259 59.9486V69.3598C92.3259 88.8509 76.5252 104.652 57.0341 104.652V104.652C37.5429 104.652 21.7422 88.8509 21.7422 69.3598V59.9486Z" fill="#F2F2F2"/>
<path d="M89.7356 69.3599V59.9476C89.7351 41.8878 75.093 27.2476 57.0331 27.2476C38.9736 27.2482 24.3336 41.8882 24.3331 59.9476V69.3599C24.3332 87.4198 38.9733 102.059 57.0331 102.06V104.651C37.847 104.65 22.238 89.3406 21.7548 70.2708L21.7422 69.3599V59.9476C21.7427 40.4573 37.5427 24.6573 57.0331 24.6567C76.5239 24.6567 92.326 40.4569 92.3265 59.9476V69.3599L92.3139 70.2708C91.8307 89.3409 76.2197 104.651 57.0331 104.651V102.06C75.0933 102.06 89.7356 87.4201 89.7356 69.3599Z" fill="#BBBBBB"/>
<path d="M57 20C76.3295 20.0001 92 36.0796 92 55.9136V57.9816C92 59.6939 91.8773 61.3785 91.6514 63.0269C88.9578 62.8208 86.3016 62.2904 83.7324 61.4098C78.0807 59.4722 73.5234 56.073 70.2238 51.7122C65.7009 55.8895 59.7226 59.461 52.6502 61.8858C42.1633 65.4809 31.3274 65.8561 22.4222 63.5634C22.1457 61.7446 22 59.88 22 57.9816V55.9136C22 36.0795 37.6705 20 57 20Z" fill="#E2E2E2"/>
<path d="M72.2097 50.1304C75.2016 54.0844 79.3425 57.1861 84.5277 58.964C86.1189 59.5094 87.7518 59.9062 89.4102 60.168C89.4572 59.4441 89.4863 58.7153 89.4863 57.9816V55.9136C89.4863 37.7921 75.3928 23.0464 57.8395 22.5894L57 22.5793C39.0587 22.5793 24.5137 37.504 24.5137 55.9136V57.9816C24.5137 59.1519 24.5776 60.3079 24.6929 61.4475C32.78 63.1659 42.4381 62.6672 51.8524 59.44L53.1117 58.9917C59.3367 56.688 64.567 53.4669 68.5423 49.7954L70.5503 47.939L72.2097 50.1304ZM92 57.9816C92 59.6939 91.8773 61.3785 91.6514 63.0269C88.9578 62.8208 86.3016 62.2904 83.7324 61.4098C78.0807 59.4722 73.5234 56.073 70.2238 51.7122C65.7009 55.8895 59.7226 59.461 52.6502 61.8858C42.1633 65.4809 31.3274 65.8561 22.4222 63.5634C22.1457 61.7446 22 59.88 22 57.9816V55.9136C22 36.0795 37.6705 20 57 20C76.3295 20.0001 92 36.0796 92 55.9136V57.9816Z" fill="#BBBBBB"/>
<path d="M45.2695 69.3582C45.2695 68.0588 46.3229 67.0054 47.6223 67.0054V67.0054C48.9217 67.0054 49.9751 68.0588 49.9751 69.3582V74.0637C49.9751 75.3632 48.9217 76.4165 47.6223 76.4165V76.4165C46.3229 76.4165 45.2695 75.3632 45.2695 74.0637V69.3582Z" fill="#8A8A8A"/>
<path d="M64.0938 69.3582C64.0938 68.0588 65.1471 67.0054 66.4465 67.0054V67.0054C67.746 67.0054 68.7993 68.0588 68.7993 69.3582V74.0637C68.7993 75.3632 67.746 76.4165 66.4465 76.4165V76.4165C65.1471 76.4165 64.0938 75.3632 64.0938 74.0637V69.3582Z" fill="#8A8A8A"/>
<path d="M63.0563 85.0505C63.4856 84.4781 64.2981 84.3606 64.8704 84.7899C65.4425 85.2191 65.5574 86.0317 65.1285 86.604C61.0812 92.0005 52.9853 92.0005 48.9379 86.604C48.5094 86.0317 48.6264 85.2189 49.1985 84.7899C49.7708 84.3613 50.5836 84.4784 51.0127 85.0505C54.0239 89.0643 60.0455 89.0649 63.0563 85.0505Z" fill="#8A8A8A"/>
<path d="M40.4368 111.597C41.1487 111.526 41.7824 112.044 41.8537 112.756L43.9184 133.402L53.7279 122.704C54.211 122.177 55.0297 122.141 55.5572 122.623C56.0846 123.107 56.1216 123.928 55.6381 124.455L43.8728 137.288C43.5277 137.664 42.9934 137.804 42.5091 137.643C42.0247 137.481 41.6794 137.05 41.6286 136.542L39.278 113.014C39.2068 112.302 39.7251 111.668 40.4368 111.597Z" fill="#CCCCCC"/>
<path d="M73.6335 111.597C72.9216 111.526 72.2879 112.044 72.2166 112.756L70.1519 133.402L60.3424 122.704C59.8593 122.177 59.0406 122.141 58.5131 122.623C57.9857 123.107 57.9487 123.928 58.4322 124.455L70.1975 137.288C70.5426 137.664 71.0769 137.804 71.5613 137.643C72.0456 137.481 72.3909 137.05 72.4418 136.542L74.7923 113.014C74.8635 112.302 74.3452 111.668 73.6335 111.597Z" fill="#CCCCCC"/>
</g>
</svg>
