<svg width="217" height="132" viewBox="0 0 217 132" fill="none" xmlns="http://www.w3.org/2000/svg">
<path d="M60.1378 67.4253C60.4549 67.4436 60.7789 67.4311 61.1067 67.3857L61.2036 68.0849C60.8299 68.1366 60.4597 68.1499 60.0969 68.129L60.1378 67.4253ZM62.5358 67.1876L62.6327 67.8868L61.2036 68.0849L61.1067 67.3857L62.5358 67.1876ZM68.2529 66.3951L68.3499 67.0943L65.4916 67.4905L65.3947 66.7913L68.2529 66.3951ZM73.9701 65.6026L74.067 66.3018L71.2081 66.6981L71.1112 65.9989L73.9701 65.6026ZM79.6866 64.8103L79.7835 65.5095L76.9253 65.9057L76.8284 65.2065L79.6866 64.8103ZM85.4038 64.0178L85.5007 64.717L82.6424 65.1132L82.5455 64.414L85.4038 64.0178ZM91.1209 63.2254L91.2179 63.9246L88.3589 64.3208L88.262 63.6216L91.1209 63.2254ZM96.8374 62.433L96.9343 63.1322L94.0761 63.5284L93.9792 62.8292L96.8374 62.433ZM102.555 61.6405L102.652 62.3397L99.7933 62.7359L99.6963 62.0367L102.555 61.6405ZM108.272 60.8481L108.369 61.5473L105.51 61.9436L105.413 61.2444L108.272 60.8481ZM113.989 60.0556L114.086 60.7548L111.227 61.1511L111.13 60.4519L113.989 60.0556ZM119.705 59.2633L119.802 59.9625L116.944 60.3586L116.847 59.6594L119.705 59.2633ZM125.423 58.4708L125.519 59.17L122.661 59.5662L122.564 58.867L125.423 58.4708ZM131.14 57.6783L131.237 58.3775L128.378 58.7738L128.281 58.0746L131.14 57.6783ZM136.856 56.886L136.953 57.5852L134.095 57.9814L133.998 57.2822L136.856 56.886ZM142.573 56.0935L142.67 56.7927L139.812 57.1889L139.715 56.4897L142.573 56.0935ZM148.291 55.3011L148.387 56.0003L145.529 56.3965L145.432 55.6973L148.291 55.3011ZM154.007 54.5087L154.104 55.2079L151.246 55.6041L151.149 54.9049L154.007 54.5087ZM158.295 53.9143L158.392 54.6135L156.963 54.8116L156.866 54.1124L158.295 53.9143ZM159.468 54.3551C159.125 54.4738 158.765 54.5618 158.392 54.6135L158.295 53.9143C158.623 53.8689 158.938 53.7928 159.238 53.689L159.468 54.3551ZM56.7349 65.7744C57.1664 66.2588 57.69 66.6549 58.2735 66.9384L58.1184 67.2556L58.1192 67.2562L57.9647 67.5727C57.2983 67.2489 56.7005 66.7968 56.2077 66.2435L56.7349 65.7744ZM162.381 51.3291L162.698 51.4828C162.374 52.1493 161.922 52.747 161.369 53.2398L161.135 52.9772L160.9 52.7133C161.384 52.2818 161.78 51.7582 162.064 51.1747L162.381 51.3291ZM54.8347 63.2666L54.6499 61.9338L55.3491 61.8368L55.5339 63.1697C55.5793 63.4974 55.6554 63.8126 55.7592 64.1127L55.0924 64.343C54.9737 63.9997 54.8864 63.64 54.8347 63.2666ZM163.21 48.2446C163.262 48.6181 163.275 48.988 163.254 49.3506L162.551 49.3103C162.569 48.9933 162.556 48.6693 162.511 48.3415L162.326 47.0087L163.026 46.9118L163.21 48.2446ZM54.6101 56.5055L54.9796 59.1711L54.2804 59.2681L53.9109 56.6024L54.6101 56.5055ZM162.287 41.5804L162.656 44.2461L161.957 44.343L161.587 41.6773L162.287 41.5804ZM53.8711 51.1741L54.2406 53.8398L53.5414 53.9367L53.1719 51.271L53.8711 51.1741ZM161.548 36.249L161.917 38.9147L161.218 39.0116L160.848 36.3459L161.548 36.249ZM53.1322 45.8427L53.5017 48.5084L52.8025 48.6053L52.433 45.9396L53.1322 45.8427ZM160.809 30.9176L161.178 33.5833L160.479 33.6802L160.109 31.0146L160.809 30.9176ZM52.3932 40.5113L52.7627 43.177L52.0635 43.2739L51.694 40.6082L52.3932 40.5113ZM160.07 25.5863L160.439 28.2519L159.74 28.3489L159.37 25.6832L160.07 25.5863ZM51.6542 35.1799L52.0237 37.8456L51.3245 37.9425L50.955 35.2769L51.6542 35.1799ZM159.331 20.2549L159.7 22.9206L159.001 23.0175L158.631 20.3518L159.331 20.2549ZM50.9152 29.8486L51.2847 32.5142L50.5855 32.6112L50.216 29.9455L50.9152 29.8486ZM158.592 14.9235L158.961 17.5892L158.262 17.6861L157.892 15.0204L158.592 14.9235ZM50.1762 24.5172L50.5457 27.1829L49.8465 27.2798L49.477 24.6141L50.1762 24.5172ZM157.853 9.59211L158.222 12.2578L157.523 12.3547L157.153 9.68903L157.853 9.59211ZM48.9228 20.6156C48.871 20.2419 48.857 19.8718 48.878 19.509L49.5823 19.5498C49.5641 19.8669 49.5766 20.1909 49.622 20.5186L49.8067 21.8515L49.1075 21.9484L48.9228 20.6156ZM157.483 6.92642L156.784 7.02334L156.599 5.6905C156.554 5.36276 156.478 5.04756 156.374 4.74743L157.04 4.51662C157.159 4.8601 157.247 5.21991 157.298 5.59358L157.483 6.92642ZM50.8995 15.7728L51.2332 16.1469C50.7488 16.5784 50.3527 17.1019 50.0693 17.6855L49.4342 17.3768C49.758 16.7104 50.2103 16.1126 50.7635 15.6197L50.8995 15.7728ZM154.168 1.28688C154.834 1.61061 155.432 2.06291 155.925 2.61613L155.398 3.08578C154.967 2.60138 154.443 2.20528 153.86 1.9218L154.079 1.47105L154.168 1.28688ZM55.1702 14.0486L55.2671 14.7478L53.838 14.9458C53.5102 14.9913 53.195 15.0674 52.8949 15.1712L52.664 14.5045C52.9186 14.4164 53.1823 14.3459 53.4539 14.2941L53.741 14.2466L55.1702 14.0486ZM151.219 0.742897C151.494 0.718884 151.767 0.715137 152.035 0.730602L151.995 1.43488C151.678 1.41661 151.354 1.4291 151.026 1.47452L149.597 1.67261L149.5 0.973417L150.929 0.775326L151.219 0.742897ZM60.8873 13.2561L60.9842 13.9553L58.126 14.3515L58.0291 13.6523L60.8873 13.2561ZM66.6045 12.4636L66.7014 13.1628L63.8425 13.5591L63.7456 12.8599L66.6045 12.4636ZM72.321 11.6713L72.4179 12.3705L69.5597 12.7667L69.4627 12.0675L72.321 11.6713ZM78.0382 10.8788L78.1351 11.578L75.2768 11.9742L75.1799 11.275L78.0382 10.8788ZM83.7553 10.0864L83.8522 10.7856L80.9933 11.1818L80.8964 10.4826L83.7553 10.0864ZM89.4718 9.29399L89.5687 9.99319L86.7105 10.3894L86.6136 9.69018L89.4718 9.29399ZM95.189 8.50154L95.2859 9.20073L92.4276 9.59691L92.3307 8.89772L95.189 8.50154ZM100.906 7.70908L101.003 8.40827L98.1441 8.80455L98.0472 8.10535L100.906 7.70908ZM106.623 6.91662L106.72 7.61582L103.861 8.01209L103.764 7.31289L106.623 6.91662ZM112.34 6.12426L112.437 6.82345L109.578 7.21963L109.482 6.52044L112.34 6.12426ZM118.057 5.3318L118.154 6.03099L115.296 6.42718L115.199 5.72798L118.057 5.3318ZM123.774 4.53934L123.871 5.23854L121.012 5.63481L120.915 4.93561L123.774 4.53934ZM129.491 3.74697L129.588 4.44617L126.729 4.84235L126.632 4.14316L129.491 3.74697ZM135.208 2.95452L135.305 3.65371L132.446 4.0499L132.35 3.3507L135.208 2.95452ZM140.925 2.16206L141.022 2.86126L138.163 3.25753L138.066 2.55833L140.925 2.16206ZM146.641 1.36969L146.738 2.06889L143.88 2.46507L143.783 1.76588L146.641 1.36969Z" fill="#BBBBBB"/>
<path d="M62.9707 23.294C62.9707 20.1752 65.499 17.647 68.6178 17.647H163.206C166.325 17.647 168.853 20.1752 168.853 23.294V66.3529C168.853 69.4716 166.325 71.9999 163.206 71.9999H68.6178C65.499 71.9999 62.9707 69.4716 62.9707 66.3529V23.294Z" fill="#EDEFF1"/>
<path d="M163.206 71.294V71.9999H68.6178V71.294H163.206ZM168.147 66.3529V23.294C168.147 20.5651 165.935 18.3529 163.206 18.3529H68.6178C65.8888 18.3529 63.6766 20.5651 63.6766 23.294V66.3529C63.6766 69.0818 65.8888 71.294 68.6178 71.294V71.9999C65.499 71.9999 62.9707 69.4716 62.9707 66.3529V23.294C62.9707 20.1752 65.499 17.647 68.6178 17.647H163.206L163.497 17.6546C166.48 17.806 168.853 20.2728 168.853 23.294V66.3529C168.853 69.3741 166.48 71.8409 163.497 71.9923L163.206 71.9999V71.294C165.935 71.294 168.147 69.0818 168.147 66.3529Z" fill="#EDEFF1"/>
<path d="M70.7354 28.2352C70.7354 26.6758 71.9995 25.4116 73.5589 25.4116H107.441C109.001 25.4116 110.265 26.6758 110.265 28.2351V62.1175C110.265 63.6769 109.001 64.941 107.441 64.941H73.5589C71.9995 64.941 70.7354 63.6769 70.7354 62.1175V28.2352Z" fill="white"/>
<path d="M72.7482 64.0745C72.9969 64.1777 73.2704 64.2351 73.5589 64.2351V64.941C73.1759 64.941 72.811 64.8641 72.478 64.726L72.7482 64.0745ZM74.9706 64.2351V64.941H73.5589V64.2351H74.9706ZM80.6177 64.2351V64.941H77.7942V64.2351H80.6177ZM86.2648 64.2351V64.941H83.4412V64.2351H86.2648ZM91.9118 64.2351V64.941H89.0883V64.2351H91.9118ZM97.5589 64.2351V64.941H94.7353V64.2351H97.5589ZM103.206 64.2351V64.941H100.382V64.2351H103.206ZM107.441 64.2351V64.941H106.029V64.2351H107.441ZM108.521 64.726C108.231 64.8464 107.916 64.9208 107.587 64.9376L107.441 64.941V64.2351C107.73 64.2351 108.003 64.1777 108.252 64.0745L108.521 64.726ZM70.7354 62.1175V60.7057H71.4412V62.1175C71.4412 62.4059 71.4987 62.6795 71.6018 62.9282L70.9497 63.1977C70.8294 62.9073 70.7555 62.5927 70.7388 62.2629L70.7354 62.1175ZM110.261 62.2629C110.245 62.5928 110.17 62.9073 110.05 63.1977L109.398 62.9282C109.501 62.6795 109.559 62.4059 109.559 62.1175V60.7057H110.265V62.1175L110.261 62.2629ZM71.4412 55.0587V57.8822H70.7354V55.0587H71.4412ZM110.265 55.0587V57.8822H109.559V55.0587H110.265ZM71.4412 49.4116V52.2351H70.7354V49.4116H71.4412ZM110.265 49.4116V52.2351H109.559V49.4116H110.265ZM71.4412 43.7646V46.5881H70.7354V43.7646H71.4412ZM110.265 43.7646V46.5881H109.559V43.7646H110.265ZM71.4412 38.1175V40.941H70.7354V38.1175H71.4412ZM110.265 38.1175V40.941H109.559V38.1175H110.265ZM71.4412 32.4704V35.294H70.7354V32.4704H71.4412ZM110.265 32.4704V35.294H109.559V32.4704H110.265ZM70.7354 28.2351C70.7354 27.8523 70.8117 27.4872 70.9497 27.1543L71.6018 27.4245C71.4987 27.6732 71.4412 27.9467 71.4412 28.2351V29.6469H70.7354V28.2351ZM110.265 29.6469H109.559V28.2351C109.559 27.9467 109.501 27.6732 109.398 27.4245L110.05 27.1543C110.188 27.4873 110.265 27.8522 110.265 28.2351V29.6469ZM74.9706 25.4116V26.1175H73.5589C73.2704 26.1175 72.9969 26.175 72.7482 26.2781L72.478 25.626C72.8109 25.4879 73.176 25.4116 73.5589 25.4116H74.9706ZM107.587 25.4151C107.916 25.4318 108.231 25.5057 108.521 25.626L108.252 26.2781C108.003 26.175 107.73 26.1175 107.441 26.1175H106.029V25.4116H107.441L107.587 25.4151ZM80.6177 25.4116V26.1175H77.7942V25.4116H80.6177ZM86.2648 25.4116V26.1175H83.4412V25.4116H86.2648ZM91.9118 25.4116V26.1175H89.0883V25.4116H91.9118ZM97.5589 25.4116V26.1175H94.7353V25.4116H97.5589ZM103.206 25.4116V26.1175H100.382V25.4116H103.206Z" fill="#C2C2C2"/>
<path d="M157.912 27.5293C158.887 27.5293 159.677 28.3194 159.677 29.294C159.677 30.2686 158.887 31.0587 157.912 31.0587H121.206C120.231 31.0587 119.441 30.2686 119.441 29.294C119.441 28.3194 120.231 27.5293 121.206 27.5293H157.912Z" fill="#DDDDDD"/>
<path d="M157.912 38.8237C158.887 38.8237 159.677 39.6138 159.677 40.5884C159.677 41.5631 158.887 42.3531 157.912 42.3531H121.206C120.231 42.3531 119.441 41.5631 119.441 40.5884C119.441 39.6138 120.231 38.8237 121.206 38.8237H157.912Z" fill="#DDDDDD"/>
<path d="M140.265 48.7061C141.24 48.7061 142.03 49.4961 142.03 50.4708C142.03 51.4454 141.24 52.2355 140.265 52.2355H121.206C120.231 52.2355 119.441 51.4454 119.441 50.4708C119.441 49.4961 120.231 48.7061 121.206 48.7061H140.265Z" fill="#DDDDDD"/>
<path d="M157.912 48.7061C158.887 48.7061 159.677 49.4961 159.677 50.4708C159.677 51.4454 158.887 52.2355 157.912 52.2355H146.618C145.644 52.2355 144.854 51.4454 144.854 50.4708C144.854 49.4961 145.644 48.7061 146.618 48.7061H157.912Z" fill="#DDDDDD"/>
<path d="M85.7303 52.5275C85.1789 53.0789 84.2851 53.0789 83.7337 52.5275C83.1824 51.9762 83.1824 51.0823 83.7337 50.531L95.8548 38.4099C96.4061 37.8586 97.3 37.8586 97.8513 38.4099C98.4027 38.9613 98.4027 39.8551 97.8513 40.4065L85.7303 52.5275Z" fill="#DDDDDD"/>
<path d="M95.9758 52.5275C96.5271 53.0789 97.421 53.0789 97.9723 52.5275C98.5236 51.9762 98.5236 51.0823 97.9723 50.531L85.8513 38.4099C85.2999 37.8586 84.406 37.8586 83.8547 38.4099C83.3034 38.9613 83.3034 39.8551 83.8547 40.4065L95.9758 52.5275Z" fill="#DDDDDD"/>
<path d="M157.912 59.2939C158.887 59.2939 159.677 60.084 159.677 61.0587C159.677 62.0333 158.887 62.8234 157.912 62.8234H121.206C120.231 62.8234 119.441 62.0333 119.441 61.0587C119.441 60.084 120.231 59.2939 121.206 59.2939H157.912Z" fill="#DDDDDD"/>
<path d="M61.676 96.8281C63.508 96.8281 64.8069 98.4961 64.8205 101.121C64.8069 103.76 63.508 105.428 61.676 105.428C59.844 105.428 58.5315 103.76 58.5452 101.121C58.5315 98.4961 59.844 96.8281 61.676 96.8281ZM61.676 97.9902C60.5549 97.9902 59.7893 99.1934 59.7893 101.121C59.7893 103.062 60.5549 104.266 61.676 104.266C62.8108 104.266 63.5764 103.062 63.5764 101.121C63.5764 99.1934 62.8108 97.9902 61.676 97.9902ZM67.9377 95.9121V100.711H69.9065V101.805H67.9377V108.162H66.6389V95.9121H67.9377ZM74.7534 98.1133C74.7534 99.6855 75.9292 101.189 77.8159 101.791L77.146 102.803C75.7378 102.338 74.6714 101.367 74.1245 100.137C73.5708 101.47 72.4839 102.522 71.021 103.035L70.3511 102.037C72.2515 101.381 73.4273 99.7812 73.4409 98.1133V97.7715H70.6929V96.7188H77.4468V97.7715H74.7534V98.1133ZM80.3726 95.9121V103.309H79.0737V95.9121H80.3726ZM80.3726 103.924V108.162H79.0737V104.977H72.0737V103.924H80.3726ZM96.3829 105.551V106.631H85.172V105.551H90.1075V102.721H86.4571V96.8965H95.043V102.721H91.3927V105.551H96.3829ZM87.7149 97.9355V101.695H93.7716V97.9355H87.7149ZM107.15 95.9258V102.898H105.851V95.9258H107.15ZM107.15 103.514V108.012H99.097V103.514H107.15ZM100.382 104.553V106.959H105.878V104.553H100.382ZM100.505 96.541C102.378 96.541 103.759 97.7168 103.759 99.4395C103.759 101.121 102.378 102.311 100.505 102.311C98.6322 102.311 97.2377 101.121 97.2377 99.4395C97.2377 97.7168 98.6322 96.541 100.505 96.541ZM100.505 97.6348C99.3431 97.6348 98.5091 98.3457 98.5091 99.4395C98.5091 100.492 99.3431 101.217 100.505 101.217C101.654 101.217 102.488 100.492 102.488 99.4395C102.488 98.3457 101.654 97.6348 100.505 97.6348ZM118.956 95.9121V108.189H117.657V95.9121H118.956ZM112.407 96.8281C114.225 96.8281 115.565 98.4961 115.565 101.121C115.565 103.76 114.225 105.428 112.407 105.428C110.561 105.428 109.235 103.76 109.235 101.121C109.235 98.4961 110.561 96.8281 112.407 96.8281ZM112.407 97.9902C111.272 97.9902 110.493 99.1934 110.493 101.121C110.493 103.062 111.272 104.266 112.407 104.266C113.528 104.266 114.307 103.062 114.307 101.121C114.307 99.1934 113.528 97.9902 112.407 97.9902ZM126.38 103.09V104.512H128.294V103.09H129.497V108.012H125.163V103.09H126.38ZM126.38 107H128.294V105.496H126.38V107ZM133.052 104.006C133.052 105.291 133.763 106.59 135.28 107.123L134.611 108.107C133.503 107.684 132.785 106.884 132.409 105.906C131.999 106.863 131.275 107.67 130.222 108.107L129.566 107.123C131.042 106.521 131.767 105.223 131.767 104.006V103.008H133.052V104.006ZM127.159 96.4316C128.773 96.4316 130.017 97.3477 130.29 98.7148H132.683V95.9121H133.982V102.406H132.683V99.7812H130.304C130.037 101.189 128.786 102.105 127.159 102.105C125.286 102.105 123.946 100.957 123.946 99.2617C123.946 97.5938 125.286 96.4316 127.159 96.4316ZM127.159 97.5117C125.997 97.5117 125.191 98.2227 125.191 99.2617C125.191 100.314 125.997 101.039 127.159 101.053C128.294 101.039 129.101 100.314 129.101 99.2617C129.101 98.2227 128.294 97.5117 127.159 97.5117ZM138.911 96.8281C140.572 96.8281 141.789 98.2363 141.987 100.506H144.516V95.9121H145.801V108.189H144.516V101.559H142C141.857 103.944 140.613 105.428 138.911 105.428C137.079 105.428 135.793 103.76 135.807 101.121C135.793 98.4961 137.079 96.8281 138.911 96.8281ZM138.911 97.9902C137.803 97.9902 137.038 99.1934 137.038 101.121C137.038 103.062 137.803 104.266 138.911 104.266C140.018 104.266 140.784 103.062 140.784 101.121C140.784 99.1934 140.018 97.9902 138.911 97.9902ZM158.619 105.551V106.631H147.408V105.551H150.088V102.352C149.083 101.798 148.474 100.916 148.474 99.8223C148.474 97.8945 150.361 96.623 152.986 96.623C155.625 96.623 157.511 97.8945 157.511 99.8223C157.511 100.902 156.924 101.771 155.939 102.324V105.551H158.619ZM152.986 97.6621C151.058 97.6621 149.732 98.4961 149.732 99.8223C149.732 101.135 151.058 101.996 152.986 101.996C154.9 101.996 156.254 101.135 156.254 99.8223C156.254 98.4961 154.9 97.6621 152.986 97.6621ZM151.373 105.551H154.627V102.816C154.128 102.946 153.574 103.008 152.986 103.008C152.412 103.008 151.865 102.946 151.373 102.83V105.551ZM30.0144 119.521C30.0144 121.572 31.3543 123.691 33.241 124.498L32.53 125.51C31.0877 124.874 29.9392 123.527 29.3718 121.887C28.8045 123.637 27.6492 125.127 26.2273 125.824L25.4753 124.799C27.3211 123.938 28.6882 121.627 28.7019 119.521V118.223H25.8992V117.143H32.8035V118.223H30.0144V119.521ZM35.6472 115.912V128.162H34.3484V115.912H35.6472ZM47.1114 116.527V117.457C47.1114 118.421 47.1114 119.515 46.7969 120.998H48.5332V122.064H37.3223V120.998H45.4844C45.8125 119.569 45.8262 118.523 45.8262 117.594H38.7305V116.527H47.1114ZM47.125 123.623V128.012H38.6895V123.623H47.125ZM39.961 124.648V126.959H45.8399V124.648H39.961ZM61.8228 115.912V120.656H63.7916V121.75H61.8228V128.162H60.524V115.912H61.8228ZM54.0299 116.938V120.082H57.2701V116.938H58.5553V125.25H52.7447V116.938H54.0299ZM54.0299 124.184H57.2701V121.107H54.0299V124.184ZM75.3104 125.605V126.699H64.0995V125.605H69.035V123.459H65.4667V119.562H72.6581V117.84H65.4393V116.773H73.9432V120.602H66.7518V122.393H74.2304V123.459H70.3202V125.605H75.3104ZM90.268 125.551V126.631H79.0571V125.551H83.9926V122.721H80.3422V116.896H88.9282V122.721H85.2778V125.551H90.268ZM81.6 117.936V121.695H87.6567V117.936H81.6ZM101.035 115.926V122.898H99.7361V115.926H101.035ZM101.035 123.514V128.012H92.9821V123.514H101.035ZM94.2673 124.553V126.959H99.7634V124.553H94.2673ZM94.3904 116.541C96.2634 116.541 97.6443 117.717 97.6443 119.439C97.6443 121.121 96.2634 122.311 94.3904 122.311C92.5173 122.311 91.1228 121.121 91.1228 119.439C91.1228 117.717 92.5173 116.541 94.3904 116.541ZM94.3904 117.635C93.2282 117.635 92.3943 118.346 92.3943 119.439C92.3943 120.492 93.2282 121.217 94.3904 121.217C95.5388 121.217 96.3728 120.492 96.3728 119.439C96.3728 118.346 95.5388 117.635 94.3904 117.635ZM108.274 116.117C111.036 116.117 112.649 116.855 112.649 118.223C112.649 119.59 111.036 120.342 108.274 120.342C105.513 120.342 103.899 119.59 103.899 118.223C103.899 116.855 105.513 116.117 108.274 116.117ZM108.274 117.074C106.319 117.074 105.239 117.498 105.253 118.223C105.239 118.975 106.319 119.371 108.274 119.371C110.229 119.371 111.31 118.975 111.31 118.223C111.31 117.498 110.229 117.074 108.274 117.074ZM113.866 121.094V122.133H102.696V121.094H113.866ZM112.458 123.076V125.947H105.321V127.041H112.8V128.039H104.05V125.004H111.173V124.047H104.036V123.076H112.458ZM123.861 116.992V122.707H118.132V116.992H123.861ZM119.404 118.045V121.682H122.589V118.045H119.404ZM127.279 115.898V119.562H129.056V120.656H127.279V124.881H125.98V115.898H127.279ZM127.798 126.85V127.902H119.513V124.02H120.812V126.85H127.798ZM140.657 120.93V121.969H129.473V120.93H140.657ZM139.331 119.002V120.041H130.936V116.268H139.208V117.32H132.235V119.002H139.331ZM139.235 122.939V125.906H132.098V127H139.577V128.025H130.827V124.949H137.95V123.938H130.813V122.939H139.235ZM144.615 116.828C146.276 116.828 147.493 118.236 147.692 120.506H150.221V115.912H151.506V128.189H150.221V121.559H147.705C147.562 123.944 146.318 125.428 144.615 125.428C142.783 125.428 141.498 123.76 141.512 121.121C141.498 118.496 142.783 116.828 144.615 116.828ZM144.615 117.99C143.508 117.99 142.742 119.193 142.742 121.121C142.742 123.062 143.508 124.266 144.615 124.266C145.723 124.266 146.488 123.062 146.488 121.121C146.488 119.193 145.723 117.99 144.615 117.99ZM164.324 125.564V126.645H153.113V125.564H158.048V123.049H154.398V116.746H155.697V118.852H161.712V116.746H162.997V123.049H159.333V125.564H164.324ZM155.697 121.996H161.712V119.904H155.697V121.996ZM168.665 119.262C168.665 121.217 169.485 123.309 171.126 124.307L170.401 125.305C169.253 124.614 168.473 123.391 168.063 121.969C167.605 123.527 166.764 124.854 165.575 125.578L164.768 124.607C166.505 123.568 167.407 121.408 167.407 119.316V117.033H168.665V119.262ZM175.473 115.912V128.162H174.229V115.912H175.473ZM172.93 116.145V127.561H171.7V121.299H169.799V120.219H171.7V116.145H172.93ZM187.963 125.551V126.631H176.752V125.551H179.432V122.352C178.427 121.798 177.818 120.916 177.818 119.822C177.818 117.895 179.705 116.623 182.33 116.623C184.969 116.623 186.855 117.895 186.855 119.822C186.855 120.902 186.268 121.771 185.283 122.324V125.551H187.963ZM182.33 117.662C180.402 117.662 179.076 118.496 179.076 119.822C179.076 121.135 180.402 121.996 182.33 121.996C184.244 121.996 185.598 121.135 185.598 119.822C185.598 118.496 184.244 117.662 182.33 117.662ZM180.717 125.551H183.971V122.816C183.472 122.946 182.918 123.008 182.33 123.008C181.756 123.008 181.209 122.946 180.717 122.83V125.551ZM190.827 117.102L190.704 124.143H189.351L189.228 117.102H190.827ZM190.034 127.096C189.501 127.096 189.05 126.658 189.064 126.125C189.05 125.592 189.501 125.154 190.034 125.154C190.554 125.154 191.005 125.592 191.005 126.125C191.005 126.658 190.554 127.096 190.034 127.096Z" fill="#A4A4A4"/>
</svg>
