<svg width="217" height="144" viewBox="0 0 217 144" fill="none" xmlns="http://www.w3.org/2000/svg">
<g clip-path="url(#clip0_673_67606)">
<path d="M60.1378 67.4253C60.4549 67.4436 60.7789 67.4311 61.1067 67.3857L61.2036 68.0849C60.8299 68.1366 60.4597 68.1499 60.0969 68.129L60.1378 67.4253ZM62.5358 67.1876L62.6327 67.8868L61.2036 68.0849L61.1067 67.3857L62.5358 67.1876ZM68.2529 66.3951L68.3499 67.0943L65.4916 67.4905L65.3947 66.7913L68.2529 66.3951ZM73.9701 65.6026L74.067 66.3018L71.2081 66.6981L71.1112 65.9989L73.9701 65.6026ZM79.6866 64.8103L79.7835 65.5095L76.9253 65.9057L76.8284 65.2065L79.6866 64.8103ZM85.4038 64.0178L85.5007 64.717L82.6424 65.1132L82.5455 64.414L85.4038 64.0178ZM91.1209 63.2254L91.2179 63.9246L88.3589 64.3208L88.262 63.6216L91.1209 63.2254ZM96.8374 62.433L96.9343 63.1322L94.0761 63.5284L93.9792 62.8292L96.8374 62.433ZM102.555 61.6405L102.652 62.3397L99.7933 62.7359L99.6963 62.0367L102.555 61.6405ZM108.272 60.8481L108.369 61.5473L105.51 61.9436L105.413 61.2444L108.272 60.8481ZM113.989 60.0556L114.086 60.7548L111.227 61.1511L111.13 60.4519L113.989 60.0556ZM119.705 59.2633L119.802 59.9625L116.944 60.3586L116.847 59.6594L119.705 59.2633ZM125.423 58.4708L125.519 59.17L122.661 59.5662L122.564 58.867L125.423 58.4708ZM131.14 57.6783L131.237 58.3775L128.378 58.7738L128.281 58.0746L131.14 57.6783ZM136.856 56.886L136.953 57.5852L134.095 57.9814L133.998 57.2822L136.856 56.886ZM142.573 56.0935L142.67 56.7927L139.812 57.1889L139.715 56.4897L142.573 56.0935ZM148.291 55.3011L148.387 56.0003L145.529 56.3965L145.432 55.6973L148.291 55.3011ZM154.007 54.5087L154.104 55.2079L151.246 55.6041L151.149 54.9049L154.007 54.5087ZM158.295 53.9143L158.392 54.6135L156.963 54.8116L156.866 54.1124L158.295 53.9143ZM159.468 54.3551C159.125 54.4738 158.765 54.5618 158.392 54.6135L158.295 53.9143C158.623 53.8689 158.938 53.7928 159.238 53.689L159.468 54.3551ZM56.7349 65.7744C57.1664 66.2588 57.69 66.6549 58.2735 66.9384L58.1184 67.2556L58.1192 67.2562L57.9647 67.5727C57.2983 67.2489 56.7005 66.7968 56.2077 66.2435L56.7349 65.7744ZM162.381 51.3291L162.698 51.4828C162.374 52.1493 161.922 52.747 161.369 53.2398L161.135 52.9772L160.9 52.7133C161.384 52.2818 161.78 51.7582 162.064 51.1747L162.381 51.3291ZM54.8347 63.2666L54.6499 61.9338L55.3491 61.8368L55.5339 63.1697C55.5793 63.4974 55.6554 63.8126 55.7592 64.1127L55.0924 64.343C54.9737 63.9997 54.8864 63.64 54.8347 63.2666ZM163.21 48.2446C163.262 48.6181 163.275 48.988 163.254 49.3506L162.551 49.3103C162.569 48.9933 162.556 48.6693 162.511 48.3415L162.326 47.0087L163.026 46.9118L163.21 48.2446ZM54.6101 56.5055L54.9796 59.1711L54.2804 59.2681L53.9109 56.6024L54.6101 56.5055ZM162.287 41.5804L162.656 44.2461L161.957 44.343L161.587 41.6773L162.287 41.5804ZM53.8711 51.1741L54.2406 53.8398L53.5414 53.9367L53.1719 51.271L53.8711 51.1741ZM161.548 36.249L161.917 38.9147L161.218 39.0116L160.848 36.3459L161.548 36.249ZM53.1322 45.8427L53.5017 48.5084L52.8025 48.6053L52.433 45.9396L53.1322 45.8427ZM160.809 30.9176L161.178 33.5833L160.479 33.6802L160.109 31.0146L160.809 30.9176ZM52.3932 40.5113L52.7627 43.177L52.0635 43.2739L51.694 40.6082L52.3932 40.5113ZM160.07 25.5863L160.439 28.2519L159.74 28.3489L159.37 25.6832L160.07 25.5863ZM51.6542 35.1799L52.0237 37.8456L51.3245 37.9425L50.955 35.2769L51.6542 35.1799ZM159.331 20.2549L159.7 22.9206L159.001 23.0175L158.631 20.3518L159.331 20.2549ZM50.9152 29.8486L51.2847 32.5142L50.5855 32.6112L50.216 29.9455L50.9152 29.8486ZM158.592 14.9235L158.961 17.5892L158.262 17.6861L157.892 15.0204L158.592 14.9235ZM50.1762 24.5172L50.5457 27.1829L49.8465 27.2798L49.477 24.6141L50.1762 24.5172ZM157.853 9.59211L158.222 12.2578L157.523 12.3547L157.153 9.68903L157.853 9.59211ZM48.9228 20.6156C48.871 20.2419 48.857 19.8718 48.878 19.509L49.5823 19.5498C49.5641 19.8669 49.5766 20.1909 49.622 20.5186L49.8067 21.8515L49.1075 21.9484L48.9228 20.6156ZM157.483 6.92642L156.784 7.02334L156.599 5.6905C156.554 5.36276 156.478 5.04756 156.374 4.74743L157.04 4.51662C157.159 4.8601 157.247 5.21991 157.298 5.59358L157.483 6.92642ZM50.8995 15.7728L51.2332 16.1469C50.7488 16.5784 50.3527 17.1019 50.0693 17.6855L49.4342 17.3768C49.758 16.7104 50.2103 16.1126 50.7635 15.6197L50.8995 15.7728ZM154.168 1.28688C154.834 1.61061 155.432 2.06291 155.925 2.61613L155.398 3.08578C154.967 2.60138 154.443 2.20528 153.86 1.9218L154.079 1.47105L154.168 1.28688ZM55.1702 14.0486L55.2671 14.7478L53.838 14.9458C53.5102 14.9913 53.195 15.0674 52.8949 15.1712L52.664 14.5045C52.9186 14.4164 53.1823 14.3459 53.4539 14.2941L53.741 14.2466L55.1702 14.0486ZM151.219 0.742897C151.494 0.718884 151.767 0.715137 152.035 0.730602L151.995 1.43488C151.678 1.41661 151.354 1.4291 151.026 1.47452L149.597 1.67261L149.5 0.973417L150.929 0.775326L151.219 0.742897ZM60.8873 13.2561L60.9842 13.9553L58.126 14.3515L58.0291 13.6523L60.8873 13.2561ZM66.6045 12.4636L66.7014 13.1628L63.8425 13.5591L63.7456 12.8599L66.6045 12.4636ZM72.321 11.6713L72.4179 12.3705L69.5597 12.7667L69.4627 12.0675L72.321 11.6713ZM78.0382 10.8788L78.1351 11.578L75.2768 11.9742L75.1799 11.275L78.0382 10.8788ZM83.7553 10.0864L83.8522 10.7856L80.9933 11.1818L80.8964 10.4826L83.7553 10.0864ZM89.4718 9.29399L89.5687 9.99319L86.7105 10.3894L86.6136 9.69018L89.4718 9.29399ZM95.189 8.50154L95.2859 9.20073L92.4276 9.59691L92.3307 8.89772L95.189 8.50154ZM100.906 7.70908L101.003 8.40827L98.1441 8.80455L98.0472 8.10535L100.906 7.70908ZM106.623 6.91662L106.72 7.61582L103.861 8.01209L103.764 7.31289L106.623 6.91662ZM112.34 6.12426L112.437 6.82345L109.578 7.21963L109.482 6.52044L112.34 6.12426ZM118.057 5.3318L118.154 6.03099L115.296 6.42718L115.199 5.72798L118.057 5.3318ZM123.774 4.53934L123.871 5.23854L121.012 5.63481L120.915 4.93561L123.774 4.53934ZM129.491 3.74697L129.588 4.44617L126.729 4.84235L126.632 4.14316L129.491 3.74697ZM135.208 2.95452L135.305 3.65371L132.446 4.0499L132.35 3.3507L135.208 2.95452ZM140.925 2.16206L141.022 2.86126L138.163 3.25753L138.066 2.55833L140.925 2.16206ZM146.641 1.36969L146.738 2.06889L143.88 2.46507L143.783 1.76588L146.641 1.36969Z" fill="#BBBBBB"/>
<path d="M62.9707 23.294C62.9707 20.1752 65.499 17.647 68.6178 17.647H163.206C166.325 17.647 168.853 20.1752 168.853 23.294V66.3529C168.853 69.4716 166.325 71.9999 163.206 71.9999H68.6178C65.499 71.9999 62.9707 69.4716 62.9707 66.3529V23.294Z" fill="#EDEFF1"/>
<path d="M163.206 71.294V71.9999H68.6178V71.294H163.206ZM168.147 66.3529V23.294C168.147 20.5651 165.935 18.3529 163.206 18.3529H68.6178C65.8888 18.3529 63.6766 20.5651 63.6766 23.294V66.3529C63.6766 69.0818 65.8888 71.294 68.6178 71.294V71.9999C65.499 71.9999 62.9707 69.4716 62.9707 66.3529V23.294C62.9707 20.1752 65.499 17.647 68.6178 17.647H163.206L163.497 17.6546C166.48 17.806 168.853 20.2728 168.853 23.294V66.3529C168.853 69.3741 166.48 71.8409 163.497 71.9923L163.206 71.9999V71.294C165.935 71.294 168.147 69.0818 168.147 66.3529Z" fill="#EDEFF1"/>
<path d="M70.7354 28.2352C70.7354 26.6758 71.9995 25.4116 73.5589 25.4116H107.441C109.001 25.4116 110.265 26.6758 110.265 28.2351V62.1175C110.265 63.6769 109.001 64.941 107.441 64.941H73.5589C71.9995 64.941 70.7354 63.6769 70.7354 62.1175V28.2352Z" fill="white"/>
<path d="M72.7482 64.0745C72.9969 64.1777 73.2704 64.2351 73.5589 64.2351V64.941C73.1759 64.941 72.811 64.8641 72.478 64.726L72.7482 64.0745ZM74.9706 64.2351V64.941H73.5589V64.2351H74.9706ZM80.6177 64.2351V64.941H77.7942V64.2351H80.6177ZM86.2648 64.2351V64.941H83.4412V64.2351H86.2648ZM91.9118 64.2351V64.941H89.0883V64.2351H91.9118ZM97.5589 64.2351V64.941H94.7353V64.2351H97.5589ZM103.206 64.2351V64.941H100.382V64.2351H103.206ZM107.441 64.2351V64.941H106.029V64.2351H107.441ZM108.521 64.726C108.231 64.8464 107.916 64.9208 107.587 64.9376L107.441 64.941V64.2351C107.73 64.2351 108.003 64.1777 108.252 64.0745L108.521 64.726ZM70.7354 62.1175V60.7057H71.4412V62.1175C71.4412 62.4059 71.4987 62.6795 71.6018 62.9282L70.9497 63.1977C70.8294 62.9073 70.7555 62.5927 70.7388 62.2629L70.7354 62.1175ZM110.261 62.2629C110.245 62.5928 110.17 62.9073 110.05 63.1977L109.398 62.9282C109.501 62.6795 109.559 62.4059 109.559 62.1175V60.7057H110.265V62.1175L110.261 62.2629ZM71.4412 55.0587V57.8822H70.7354V55.0587H71.4412ZM110.265 55.0587V57.8822H109.559V55.0587H110.265ZM71.4412 49.4116V52.2351H70.7354V49.4116H71.4412ZM110.265 49.4116V52.2351H109.559V49.4116H110.265ZM71.4412 43.7646V46.5881H70.7354V43.7646H71.4412ZM110.265 43.7646V46.5881H109.559V43.7646H110.265ZM71.4412 38.1175V40.941H70.7354V38.1175H71.4412ZM110.265 38.1175V40.941H109.559V38.1175H110.265ZM71.4412 32.4704V35.294H70.7354V32.4704H71.4412ZM110.265 32.4704V35.294H109.559V32.4704H110.265ZM70.7354 28.2351C70.7354 27.8523 70.8117 27.4872 70.9497 27.1543L71.6018 27.4245C71.4987 27.6732 71.4412 27.9467 71.4412 28.2351V29.6469H70.7354V28.2351ZM110.265 29.6469H109.559V28.2351C109.559 27.9467 109.501 27.6732 109.398 27.4245L110.05 27.1543C110.188 27.4873 110.265 27.8522 110.265 28.2351V29.6469ZM74.9706 25.4116V26.1175H73.5589C73.2704 26.1175 72.9969 26.175 72.7482 26.2781L72.478 25.626C72.8109 25.4879 73.176 25.4116 73.5589 25.4116H74.9706ZM107.587 25.4151C107.916 25.4318 108.231 25.5057 108.521 25.626L108.252 26.2781C108.003 26.175 107.73 26.1175 107.441 26.1175H106.029V25.4116H107.441L107.587 25.4151ZM80.6177 25.4116V26.1175H77.7942V25.4116H80.6177ZM86.2648 25.4116V26.1175H83.4412V25.4116H86.2648ZM91.9118 25.4116V26.1175H89.0883V25.4116H91.9118ZM97.5589 25.4116V26.1175H94.7353V25.4116H97.5589ZM103.206 25.4116V26.1175H100.382V25.4116H103.206Z" fill="#C2C2C2"/>
<path d="M157.912 27.5293C158.887 27.5293 159.677 28.3194 159.677 29.294C159.677 30.2686 158.887 31.0587 157.912 31.0587H121.206C120.231 31.0587 119.441 30.2686 119.441 29.294C119.441 28.3194 120.231 27.5293 121.206 27.5293H157.912Z" fill="#DDDDDD"/>
<path d="M157.912 38.8237C158.887 38.8237 159.677 39.6138 159.677 40.5884C159.677 41.5631 158.887 42.3531 157.912 42.3531H121.206C120.231 42.3531 119.441 41.5631 119.441 40.5884C119.441 39.6138 120.231 38.8237 121.206 38.8237H157.912Z" fill="#DDDDDD"/>
<path d="M140.265 48.7061C141.24 48.7061 142.03 49.4961 142.03 50.4708C142.03 51.4454 141.24 52.2355 140.265 52.2355H121.206C120.231 52.2355 119.441 51.4454 119.441 50.4708C119.441 49.4961 120.231 48.7061 121.206 48.7061H140.265Z" fill="#DDDDDD"/>
<path d="M157.912 48.7061C158.887 48.7061 159.677 49.4961 159.677 50.4708C159.677 51.4454 158.887 52.2355 157.912 52.2355H146.618C145.644 52.2355 144.854 51.4454 144.854 50.4708C144.854 49.4961 145.644 48.7061 146.618 48.7061H157.912Z" fill="#DDDDDD"/>
<path d="M85.7303 52.5275C85.1789 53.0789 84.2851 53.0789 83.7337 52.5275C83.1824 51.9762 83.1824 51.0823 83.7337 50.531L95.8548 38.4099C96.4061 37.8586 97.3 37.8586 97.8513 38.4099C98.4027 38.9613 98.4027 39.8551 97.8513 40.4065L85.7303 52.5275Z" fill="#DDDDDD"/>
<path d="M95.9758 52.5275C96.5271 53.0789 97.421 53.0789 97.9723 52.5275C98.5236 51.9762 98.5236 51.0823 97.9723 50.531L85.8513 38.4099C85.2999 37.8586 84.406 37.8586 83.8547 38.4099C83.3034 38.9613 83.3034 39.8551 83.8547 40.4065L95.9758 52.5275Z" fill="#DDDDDD"/>
<path d="M157.912 59.2939C158.887 59.2939 159.677 60.084 159.677 61.0587C159.677 62.0333 158.887 62.8234 157.912 62.8234H121.206C120.231 62.8234 119.441 62.0333 119.441 61.0587C119.441 60.084 120.231 59.2939 121.206 59.2939H157.912Z" fill="#DDDDDD"/>
<path d="M54.9869 102.375C57.0806 102.375 58.565 104.281 58.5806 107.281C58.565 110.297 57.0806 112.203 54.9869 112.203C52.8931 112.203 51.3931 110.297 51.4087 107.281C51.3931 104.281 52.8931 102.375 54.9869 102.375ZM54.9869 103.703C53.7056 103.703 52.8306 105.078 52.8306 107.281C52.8306 109.5 53.7056 110.875 54.9869 110.875C56.2837 110.875 57.1587 109.5 57.1587 107.281C57.1587 105.078 56.2837 103.703 54.9869 103.703ZM62.1431 101.328V106.812H64.3931V108.062H62.1431V115.328H60.6587V101.328H62.1431ZM69.9325 103.844C69.9325 105.641 71.2762 107.359 73.4325 108.047L72.6669 109.203C71.0575 108.672 69.8387 107.562 69.2137 106.156C68.5809 107.68 67.3387 108.883 65.6669 109.469L64.9012 108.328C67.0731 107.578 68.4169 105.75 68.4325 103.844V103.453H65.2919V102.25H73.0106V103.453H69.9325V103.844ZM76.3544 101.328V109.781H74.87V101.328H76.3544ZM76.3544 110.484V115.328H74.87V111.688H66.87V110.484H76.3544ZM94.6519 112.344V113.578H81.8394V112.344H87.48V109.109H83.3081V102.453H93.1206V109.109H88.9487V112.344H94.6519ZM84.7456 103.641V107.938H91.6675V103.641H84.7456ZM106.957 101.344V109.312H105.473V101.344H106.957ZM106.957 110.016V115.156H97.7538V110.016H106.957ZM99.2225 111.203V113.953H105.504V111.203H99.2225ZM99.3631 102.047C101.504 102.047 103.082 103.391 103.082 105.359C103.082 107.281 101.504 108.641 99.3631 108.641C97.2225 108.641 95.6288 107.281 95.6288 105.359C95.6288 103.391 97.2225 102.047 99.3631 102.047ZM99.3631 103.297C98.035 103.297 97.0819 104.109 97.0819 105.359C97.0819 106.562 98.035 107.391 99.3631 107.391C100.676 107.391 101.629 106.562 101.629 105.359C101.629 104.109 100.676 103.297 99.3631 103.297ZM120.449 101.328V115.359H118.965V101.328H120.449ZM112.965 102.375C115.043 102.375 116.574 104.281 116.574 107.281C116.574 110.297 115.043 112.203 112.965 112.203C110.856 112.203 109.34 110.297 109.34 107.281C109.34 104.281 110.856 102.375 112.965 102.375ZM112.965 103.703C111.668 103.703 110.777 105.078 110.777 107.281C110.777 109.5 111.668 110.875 112.965 110.875C114.246 110.875 115.137 109.5 115.137 107.281C115.137 105.078 114.246 103.703 112.965 103.703ZM128.934 109.531V111.156H131.122V109.531H132.497V115.156H127.544V109.531H128.934ZM128.934 114H131.122V112.281H128.934V114ZM136.559 110.578C136.559 112.047 137.372 113.531 139.106 114.141L138.341 115.266C137.075 114.781 136.255 113.867 135.825 112.75C135.356 113.844 134.528 114.766 133.325 115.266L132.575 114.141C134.262 113.453 135.091 111.969 135.091 110.578V109.438H136.559V110.578ZM129.825 101.922C131.669 101.922 133.091 102.969 133.403 104.531H136.137V101.328H137.622V108.75H136.137V105.75H133.419C133.114 107.359 131.684 108.406 129.825 108.406C127.684 108.406 126.153 107.094 126.153 105.156C126.153 103.25 127.684 101.922 129.825 101.922ZM129.825 103.156C128.497 103.156 127.575 103.969 127.575 105.156C127.575 106.359 128.497 107.188 129.825 107.203C131.122 107.188 132.044 106.359 132.044 105.156C132.044 103.969 131.122 103.156 129.825 103.156ZM143.255 102.375C145.153 102.375 146.544 103.984 146.771 106.578H149.661V101.328H151.13V115.359H149.661V107.781H146.786C146.622 110.508 145.2 112.203 143.255 112.203C141.161 112.203 139.693 110.297 139.708 107.281C139.693 104.281 141.161 102.375 143.255 102.375ZM143.255 103.703C141.989 103.703 141.114 105.078 141.114 107.281C141.114 109.5 141.989 110.875 143.255 110.875C144.521 110.875 145.396 109.5 145.396 107.281C145.396 105.078 144.521 103.703 143.255 103.703ZM165.779 112.344V113.578H152.966V112.344H156.029V108.688C154.88 108.055 154.185 107.047 154.185 105.797C154.185 103.594 156.341 102.141 159.341 102.141C162.357 102.141 164.513 103.594 164.513 105.797C164.513 107.031 163.841 108.023 162.716 108.656V112.344H165.779ZM159.341 103.328C157.138 103.328 155.622 104.281 155.622 105.797C155.622 107.297 157.138 108.281 159.341 108.281C161.529 108.281 163.076 107.297 163.076 105.797C163.076 104.281 161.529 103.328 159.341 103.328ZM157.497 112.344H161.216V109.219C160.646 109.367 160.013 109.438 159.341 109.438C158.685 109.438 158.06 109.367 157.497 109.234V112.344ZM18.8022 129.453C18.8022 131.797 20.3334 134.219 22.4897 135.141L21.6772 136.297C20.0287 135.57 18.7162 134.031 18.0678 132.156C17.4194 134.156 16.0991 135.859 14.4741 136.656L13.6147 135.484C15.7241 134.5 17.2866 131.859 17.3022 129.453V127.969H14.0991V126.734H21.9897V127.969H18.8022V129.453ZM25.2397 125.328V139.328H23.7553V125.328H25.2397ZM38.3416 126.031V127.094C38.3416 128.195 38.3416 129.445 37.9822 131.141H39.9666V132.359H27.1541V131.141H36.4822C36.8572 129.508 36.8728 128.312 36.8728 127.25H28.7634V126.031H38.3416ZM38.3572 134.141V139.156H28.7166V134.141H38.3572ZM30.1697 135.312V137.953H36.8884V135.312H30.1697ZM55.1547 125.328V130.75H57.4047V132H55.1547V139.328H53.6703V125.328H55.1547ZM46.2484 126.5V130.094H49.9516V126.5H51.4203V136H44.7797V126.5H46.2484ZM46.2484 134.781H49.9516V131.266H46.2484V134.781ZM70.5691 136.406V137.656H57.7566V136.406H63.3972V133.953H59.3191V129.5H67.5378V127.531H59.2878V126.312H69.0066V130.688H60.7878V132.734H69.3347V133.953H64.8659V136.406H70.5691ZM87.6634 136.344V137.578H74.8509V136.344H80.4916V133.109H76.3197V126.453H86.1322V133.109H81.9603V136.344H87.6634ZM77.7572 127.641V131.938H84.6791V127.641H77.7572ZM99.9684 125.344V133.312H98.4841V125.344H99.9684ZM99.9684 134.016V139.156H90.7653V134.016H99.9684ZM92.2341 135.203V137.953H98.5153V135.203H92.2341ZM92.3747 126.047C94.5153 126.047 96.0934 127.391 96.0934 129.359C96.0934 131.281 94.5153 132.641 92.3747 132.641C90.2341 132.641 88.6403 131.281 88.6403 129.359C88.6403 127.391 90.2341 126.047 92.3747 126.047ZM92.3747 127.297C91.0466 127.297 90.0934 128.109 90.0934 129.359C90.0934 130.562 91.0466 131.391 92.3747 131.391C93.6872 131.391 94.6403 130.562 94.6403 129.359C94.6403 128.109 93.6872 127.297 92.3747 127.297ZM108.242 125.562C111.398 125.562 113.242 126.406 113.242 127.969C113.242 129.531 111.398 130.391 108.242 130.391C105.086 130.391 103.242 129.531 103.242 127.969C103.242 126.406 105.086 125.562 108.242 125.562ZM108.242 126.656C106.008 126.656 104.773 127.141 104.789 127.969C104.773 128.828 106.008 129.281 108.242 129.281C110.477 129.281 111.711 128.828 111.711 127.969C111.711 127.141 110.477 126.656 108.242 126.656ZM114.633 131.25V132.438H101.867V131.25H114.633ZM113.023 133.516V136.797H104.867V138.047H113.414V139.188H103.414V135.719H111.555V134.625H103.398V133.516H113.023ZM126.055 126.562V133.094H119.508V126.562H126.055ZM120.962 127.766V131.922H124.602V127.766H120.962ZM129.962 125.312V129.5H131.993V130.75H129.962V135.578H128.477V125.312H129.962ZM130.555 137.828V139.031H121.087V134.594H122.571V137.828H130.555ZM145.251 131.062V132.25H132.47V131.062H145.251ZM143.735 128.859V130.047H134.142V125.734H143.595V126.938H135.626V128.859H143.735ZM143.626 133.359V136.75H135.47V138H144.017V139.172H134.017V135.656H142.157V134.5H134.001V133.359H143.626ZM149.775 126.375C151.673 126.375 153.064 127.984 153.29 130.578H156.181V125.328H157.65V139.359H156.181V131.781H153.306C153.142 134.508 151.72 136.203 149.775 136.203C147.681 136.203 146.212 134.297 146.228 131.281C146.212 128.281 147.681 126.375 149.775 126.375ZM149.775 127.703C148.509 127.703 147.634 129.078 147.634 131.281C147.634 133.5 148.509 134.875 149.775 134.875C151.04 134.875 151.915 133.5 151.915 131.281C151.915 129.078 151.04 127.703 149.775 127.703ZM172.298 136.359V137.594H159.486V136.359H165.127V133.484H160.955V126.281H162.439V128.688H169.314V126.281H170.783V133.484H166.595V136.359H172.298ZM162.439 132.281H169.314V129.891H162.439V132.281ZM177.26 129.156C177.26 131.391 178.197 133.781 180.072 134.922L179.244 136.062C177.932 135.273 177.041 133.875 176.572 132.25C176.049 134.031 175.088 135.547 173.728 136.375L172.807 135.266C174.791 134.078 175.822 131.609 175.822 129.219V126.609H177.26V129.156ZM185.041 125.328V139.328H183.619V125.328H185.041ZM182.135 125.594V138.641H180.728V131.484H178.557V130.25H180.728V125.594H182.135ZM199.315 136.344V137.578H186.502V136.344H189.565V132.688C188.416 132.055 187.721 131.047 187.721 129.797C187.721 127.594 189.877 126.141 192.877 126.141C195.893 126.141 198.049 127.594 198.049 129.797C198.049 131.031 197.377 132.023 196.252 132.656V136.344H199.315ZM192.877 127.328C190.674 127.328 189.158 128.281 189.158 129.797C189.158 131.297 190.674 132.281 192.877 132.281C195.065 132.281 196.612 131.297 196.612 129.797C196.612 128.281 195.065 127.328 192.877 127.328ZM191.033 136.344H194.752V133.219C194.182 133.367 193.549 133.438 192.877 133.438C192.221 133.438 191.596 133.367 191.033 133.234V136.344ZM202.588 126.688L202.448 134.734H200.901L200.76 126.688H202.588ZM201.682 138.109C201.073 138.109 200.557 137.609 200.573 137C200.557 136.391 201.073 135.891 201.682 135.891C202.276 135.891 202.792 136.391 202.792 137C202.792 137.609 202.276 138.109 201.682 138.109Z" fill="#A4A4A4"/>
</g>
<defs>
<clipPath id="clip0_673_67606">
<rect width="217" height="144" fill="white"/>
</clipPath>
</defs>
</svg>
