<svg width="72" height="23" viewBox="0 0 72 23" fill="none" xmlns="http://www.w3.org/2000/svg">
<path d="M68.2985 21.9396C68.8168 21.6642 69.2136 21.3889 69.4889 21.1136C69.7804 20.8382 69.9505 20.4819 69.9991 20.0446C69.4484 19.9475 68.9868 19.7126 68.6143 19.3401C68.2418 18.9676 68.0555 18.5303 68.0555 18.0282C68.0555 17.4937 68.2418 17.0403 68.6143 16.6677C68.9868 16.279 69.4484 16.0847 69.9991 16.0847C70.5174 16.0847 70.9627 16.2709 71.3353 16.6434C71.724 16.9998 71.9426 17.4614 71.9912 18.0282C72.056 19.4211 71.7645 20.4576 71.1166 21.1379C70.7927 21.4942 70.4607 21.7857 70.1206 22.0125C69.7966 22.2392 69.4889 22.4012 69.1974 22.4983L69.2217 22.474C68.8977 22.5874 68.6548 22.6441 68.4928 22.6441C68.4443 22.6441 68.3795 22.6279 68.2985 22.5955C68.2337 22.5631 68.177 22.5307 68.1284 22.4983C67.9827 22.2716 68.0394 22.0853 68.2985 21.9396ZM71.9426 7.36309C71.9426 7.91376 71.7483 8.38344 71.3595 8.77215C70.9708 9.14466 70.5093 9.33091 69.9748 9.33091C69.4241 9.33091 68.9625 9.14466 68.59 8.77215C68.2175 8.38344 68.0312 7.91376 68.0312 7.36309C68.0312 6.81242 68.2175 6.35083 68.59 5.97832C68.9625 5.58962 69.4241 5.39526 69.9748 5.39526C70.5093 5.39526 70.9708 5.58962 71.3595 5.97832C71.7483 6.35083 71.9426 6.81242 71.9426 7.36309Z" fill="#FF4000"/>
<path d="M45.2921 21.0873C44.6929 21.6704 44.0127 21.6623 43.2514 21.063C42.5064 20.4638 42.4497 19.8726 43.0814 19.2895L49.908 12.4629C50.0862 12.2847 50.2886 12.1633 50.5154 12.0985C50.7421 12.0337 50.9689 12.0013 51.1956 12.0013C51.4224 12.0013 51.6491 12.0337 51.8759 12.0985C52.1188 12.1633 52.3293 12.2847 52.5075 12.4629L59.3342 19.2895C59.9496 19.8888 59.8848 20.48 59.1398 21.063C58.411 21.6623 57.7388 21.6704 57.1234 21.0873L51.2199 14.9895L45.2921 21.0873ZM57.0505 12.0013C57.0505 12.7787 56.5646 13.1674 55.5929 13.1674C54.6373 13.1674 54.1595 12.7787 54.1595 12.0013V1.16612C54.1595 0.388706 54.6373 0 55.5929 0C56.5646 0 57.0505 0.388706 57.0505 1.16612V12.0013ZM50.151 6.55942C50.151 8.2762 49.5598 9.75005 48.3775 10.9809C47.2114 12.2119 45.7861 12.8273 44.1017 12.8273C42.3849 12.8273 40.9354 12.2199 39.7531 11.0052C38.587 9.77434 38.0039 8.2924 38.0039 6.55942C38.0039 4.82644 38.587 3.35259 39.7531 2.13788C40.9354 0.906981 42.3849 0.29153 44.1017 0.29153C45.7861 0.29153 47.2114 0.906981 48.3775 2.13788C49.5598 3.35259 50.151 4.82644 50.151 6.55942ZM47.3086 6.55942C47.3086 5.50667 46.9927 4.60779 46.3611 3.86277C45.7456 3.11775 44.9925 2.74524 44.1017 2.74524C43.2109 2.74524 42.4497 3.11775 41.8181 3.86277C41.2026 4.60779 40.8949 5.50667 40.8949 6.55942C40.8949 7.61216 41.2026 8.51104 41.8181 9.25606C42.4497 10.0011 43.2109 10.3736 44.1017 10.3736C44.9925 10.3736 45.7456 10.0011 46.3611 9.25606C46.9927 8.51104 47.3086 7.61216 47.3086 6.55942Z" fill="#FF4000"/>
<path d="M36.1545 8.8924C36.6728 9.49166 36.5594 10.0747 35.8144 10.6416C35.0694 11.2084 34.4458 11.1922 33.9437 10.593L27.773 3.28046L21.6023 10.593C21.1002 11.1922 20.4767 11.2084 19.7317 10.6416C19.0028 10.0747 18.8895 9.49166 19.3915 8.8924L26.364 0.632397C26.7527 0.178907 27.2224 0.0736323 27.773 0.316573C28.3075 0.0736323 28.7772 0.178907 29.1821 0.632397L36.1545 8.8924ZM29.2307 16.8609C29.2307 17.2334 29.1173 17.5735 28.8906 17.8812C28.68 18.1728 28.2832 18.3185 27.7001 18.3185H19.513C18.8976 18.3185 18.5898 17.9136 18.5898 17.1038C18.606 16.2778 18.9138 15.8648 19.513 15.8648H26.121C26.2344 15.8648 26.2992 15.8405 26.3154 15.7919C26.3316 15.7433 26.3397 15.6867 26.3397 15.6219V9.96134C26.3397 9.18393 26.8175 8.79523 27.773 8.79523C28.7448 8.79523 29.2307 9.18393 29.2307 9.96134V16.8609Z" fill="#FF4000"/>
<path d="M17.5647 8.8924C18.0829 9.49166 17.9696 10.0747 17.2245 10.6416C16.4795 11.2084 15.856 11.1922 15.3539 10.593L9.18318 3.28046L3.01247 10.593C2.51039 11.1922 1.88684 11.2084 1.14182 10.6416C0.413 10.0747 0.299628 9.49166 0.801706 8.8924L7.77412 0.632397C8.16283 0.178907 8.63252 0.0736323 9.18318 0.316573C9.71765 0.0736323 10.1873 0.178907 10.5922 0.632397L17.5647 8.8924ZM10.6408 16.8609C10.6408 17.2334 10.5275 17.5735 10.3007 17.8812C10.0902 18.1728 9.69336 18.3185 9.1103 18.3185H0.923177C0.307726 18.3185 0 17.9136 0 17.1038C0.0161961 16.2778 0.323922 15.8648 0.923177 15.8648H7.53118C7.64455 15.8648 7.70934 15.8405 7.72553 15.7919C7.74173 15.7433 7.74983 15.6867 7.74983 15.6219V9.96134C7.74983 9.18393 8.22761 8.79523 9.18318 8.79523C10.1549 8.79523 10.6408 9.18393 10.6408 9.96134V16.8609Z" fill="#FF4000"/>
</svg>
