<svg width="17" height="16" viewBox="0 0 17 16" fill="none" xmlns="http://www.w3.org/2000/svg">
<path d="M2.53696 1.62964L0.833252 3.33334" stroke="#2272EB" stroke-width="1.66667" stroke-linecap="round"/>
<path d="M14.4628 1.62964L16.1665 3.33334" stroke="#2272EB" stroke-width="1.66667" stroke-linecap="round"/>
<path d="M8.49976 1.62915C12.2634 1.62928 15.3142 4.68094 15.3142 8.44458C15.3141 12.2081 12.2633 15.2589 8.49976 15.259C4.73611 15.259 1.68444 12.2082 1.68433 8.44458C1.68433 4.68086 4.73604 1.62915 8.49976 1.62915ZM10.7244 5.66431C10.365 5.37698 9.83995 5.43487 9.55249 5.79419L8.32593 7.32642L6.40601 6.04712C6.02312 5.79227 5.50591 5.8958 5.25073 6.27856C4.99585 6.66138 5.09957 7.17859 5.48218 7.43384L7.87866 9.03149C8.32808 9.33109 8.93169 9.23721 9.26929 8.81567L10.8542 6.83521C11.1415 6.47597 11.0833 5.95185 10.7244 5.66431Z" fill="#2272EB"/>
</svg>
