<svg width="15" height="16" viewBox="0 0 15 16" fill="none" xmlns="http://www.w3.org/2000/svg">
<path d="M2.5 4.66659V5.99992H12.5V4.66659C12.5 4.31296 12.3683 3.97382 12.1339 3.72378C11.8995 3.47373 11.5815 3.33325 11.25 3.33325H3.75C3.41848 3.33325 3.10054 3.47373 2.86612 3.72378C2.6317 3.97382 2.5 4.31296 2.5 4.66659Z" fill="#8E8E8E"/>
<path d="M10 3.33333H11.25C11.5815 3.33333 11.8995 3.47381 12.1339 3.72386C12.3683 3.97391 12.5 4.31304 12.5 4.66667V6H2.5V4.66667C2.5 4.31304 2.6317 3.97391 2.86612 3.72386C3.10054 3.47381 3.41848 3.33333 3.75 3.33333H5M10 3.33333V2M10 3.33333H5M5 3.33333V2M2.5 6.33333V12.6667C2.5 13.0203 2.6317 13.3594 2.86612 13.6095C3.10054 13.8595 3.41848 14 3.75 14H11.25C11.5815 14 11.8995 13.8595 12.1339 13.6095C12.3683 13.3594 12.5 13.0203 12.5 12.6667V6.33333" stroke="#8E8E8E" stroke-width="1.1" stroke-linecap="round" stroke-linejoin="round"/>
</svg>
