<svg width="800" height="800" viewBox="0 0 800 800" fill="none" xmlns="http://www.w3.org/2000/svg">
<path opacity="0.4" d="M400 733.667C584.094 733.667 733.334 584.43 733.334 400.333C733.334 216.239 584.094 67.0002 400 67.0002C215.905 67.0002 66.667 216.239 66.667 400.333C66.667 584.43 215.905 733.667 400 733.667Z" fill="#292D32"/>
<path d="M400 231.331C331 231.331 275 287.331 275 356.33C275 423.997 328 478.997 398.333 480.997C399.333 480.997 400.667 480.997 401.333 480.997C402 480.997 403 480.997 403.667 480.997C404 480.997 404.333 480.997 404.333 480.997C471.667 478.663 524.667 423.997 525 356.33C525 287.331 469 231.331 400 231.331Z" fill="#292D32"/>
<path d="M626.023 645.333C566.69 700 487.357 733.667 400.023 733.667C312.69 733.667 233.357 700 174.023 645.333C182.023 615 203.69 587.333 235.357 566C326.357 505.333 474.357 505.333 564.69 566C596.69 587.333 618.023 615 626.023 645.333Z" fill="#292D32"/>
</svg>
