<svg width="11" height="11" viewBox="0 0 11 11" fill="none" xmlns="http://www.w3.org/2000/svg">
<g clip-path="url(#clip0_384_80233)">
<path d="M3.66433 10.0767C3.9173 10.0767 4.12237 9.87164 4.12237 9.61868C4.12237 9.36571 3.9173 9.16064 3.66433 9.16064C3.41137 9.16064 3.2063 9.36571 3.2063 9.61868C3.2063 9.87164 3.41137 10.0767 3.66433 10.0767Z" stroke="white" stroke-width="0.916067" stroke-linecap="round" stroke-linejoin="round"/>
<path d="M8.70266 10.0767C8.95563 10.0767 9.1607 9.87164 9.1607 9.61868C9.1607 9.36571 8.95563 9.16064 8.70266 9.16064C8.4497 9.16064 8.24463 9.36571 8.24463 9.61868C8.24463 9.87164 8.4497 10.0767 8.70266 10.0767Z" stroke="white" stroke-width="0.916067" stroke-linecap="round" stroke-linejoin="round"/>
<path d="M0.938965 0.938965H1.85503L3.0734 6.62774C3.1181 6.83608 3.23402 7.02233 3.40122 7.15441C3.56842 7.2865 3.77644 7.35617 3.98947 7.35143H8.46904C8.67752 7.3511 8.87965 7.27965 9.04205 7.14891C9.20444 7.01816 9.31738 6.83593 9.3622 6.63232L10.118 3.22913H2.34513" stroke="white" stroke-width="0.916067" stroke-linecap="round" stroke-linejoin="round"/>
</g>
<defs>
<clipPath id="clip0_384_80233">
<rect width="10.9928" height="10.9928" fill="white"/>
</clipPath>
</defs>
</svg>
