<svg width="18" height="18" viewBox="0 0 18 18" fill="none" xmlns="http://www.w3.org/2000/svg">
<g clip-path="url(#clip0_384_80093)">
<path d="M7.45283 11.6249C7.38587 11.3654 7.25058 11.1285 7.06104 10.939C6.8715 10.7494 6.63463 10.6142 6.37508 10.5472L1.77383 9.36069C1.69533 9.33841 1.62623 9.29113 1.57704 9.22603C1.52784 9.16092 1.50122 9.08155 1.50122 8.99994C1.50122 8.91834 1.52784 8.83896 1.57704 8.77386C1.62623 8.70875 1.69533 8.66147 1.77383 8.63919L6.37508 7.45194C6.63454 7.38505 6.87135 7.24987 7.06088 7.06047C7.25041 6.87107 7.38575 6.63436 7.45283 6.37494L8.63933 1.77369C8.66138 1.69488 8.70861 1.62545 8.77382 1.57599C8.83902 1.52653 8.91861 1.49976 9.00045 1.49976C9.08229 1.49976 9.16188 1.52653 9.22709 1.57599C9.29229 1.62545 9.33952 1.69488 9.36158 1.77369L10.5473 6.37494C10.6143 6.6345 10.7496 6.87137 10.9391 7.06091C11.1287 7.25045 11.3655 7.38573 11.6251 7.45269L16.2263 8.63844C16.3055 8.66027 16.3752 8.70745 16.425 8.77275C16.4747 8.83805 16.5016 8.91786 16.5016 8.99994C16.5016 9.08202 16.4747 9.16183 16.425 9.22713C16.3752 9.29244 16.3055 9.33962 16.2263 9.36144L11.6251 10.5472C11.3655 10.6142 11.1287 10.7494 10.9391 10.939C10.7496 11.1285 10.6143 11.3654 10.5473 11.6249L9.36083 16.2262C9.33877 16.305 9.29154 16.3744 9.22634 16.4239C9.16113 16.4734 9.08154 16.5001 8.9997 16.5001C8.91786 16.5001 8.83827 16.4734 8.77307 16.4239C8.70787 16.3744 8.66063 16.305 8.63858 16.2262L7.45283 11.6249Z" stroke="#FF6600" stroke-width="1.5" stroke-linecap="round" stroke-linejoin="round"/>
<path d="M15 2.25V5.25" stroke="#FF6600" stroke-width="1.5" stroke-linecap="round" stroke-linejoin="round"/>
<path d="M16.5 3.75H13.5" stroke="#FF6600" stroke-width="1.5" stroke-linecap="round" stroke-linejoin="round"/>
<path d="M3 12.75V14.25" stroke="#FF6600" stroke-width="1.5" stroke-linecap="round" stroke-linejoin="round"/>
<path d="M3.75 13.5H2.25" stroke="#FF6600" stroke-width="1.5" stroke-linecap="round" stroke-linejoin="round"/>
</g>
<defs>
<clipPath id="clip0_384_80093">
<rect width="18" height="18" fill="white"/>
</clipPath>
</defs>
</svg>
