<svg width="20" height="20" viewBox="0 0 20 20" fill="none" xmlns="http://www.w3.org/2000/svg">
<path d="M8.55664 17.5C8.70293 17.7533 8.91332 17.9637 9.16668 18.11C9.42003 18.2563 9.70743 18.3333 9.99997 18.3333C10.2925 18.3333 10.5799 18.2563 10.8333 18.11C11.0866 17.9637 11.297 17.7533 11.4433 17.5" stroke="#FF6F0F" stroke-width="1.5" stroke-linecap="round" stroke-linejoin="round"/>
<path d="M2.71821 12.7715C2.60935 12.8908 2.53751 13.0392 2.51143 13.1986C2.48534 13.358 2.50615 13.5215 2.5713 13.6693C2.63646 13.8171 2.74316 13.9428 2.87843 14.0311C3.01369 14.1193 3.1717 14.1664 3.33321 14.1665H16.6665C16.828 14.1666 16.9861 14.1197 17.1214 14.0316C17.2568 13.9435 17.3636 13.818 17.429 13.6703C17.4943 13.5226 17.5153 13.3591 17.4894 13.1997C17.4635 13.0402 17.3919 12.8918 17.2832 12.7723C16.1749 11.6298 14.9999 10.4157 14.9999 6.6665C14.9999 5.34042 14.4731 4.06865 13.5354 3.13097C12.5977 2.19329 11.326 1.6665 9.99988 1.6665C8.6738 1.6665 7.40203 2.19329 6.46435 3.13097C5.52666 4.06865 4.99988 5.34042 4.99988 6.6665C4.99988 10.4157 3.82405 11.6298 2.71821 12.7715Z" stroke="#FF6F0F" stroke-width="1.5" stroke-linecap="round" stroke-linejoin="round"/>
</svg>
